# xmcd CD database file
#
# Track frame offsets:
#	150
#	33882
#	53737
#	90755
#	114127
#	147952
#	182645
#
# Disc length: 2748 seconds
#
# Revision: 0
# Processed by: cddbd v1.4PL0 Copyright (c) Steve Scherf et al.
# Submitted via: CDex 1.50beta10
#
DISCID=480aba07
DTITLE=David Murray - Remembrances
DYEAR=1900
DGENRE=Jazz
TTITLE0=Lo Chi Lo
TTITLE1=I want to see you everyday of your life
TTITLE2=Dartman
TTITLE3=Sometimes i fell like a motherless child
TTITLE4=Popolo Paniolo
TTITLE5=Dextor's Blues
TTITLE6=Remembrances
EXTD=
EXTT0=
EXTT1=
EXTT2=
EXTT3=
EXTT4=
EXTT5=
EXTT6=
PLAYORDER=
